<svg width="32" height="32" viewBox="0 0 32 32" fill="none" xmlns="http://www.w3.org/2000/svg">
<path d="M12 13.3333H2.66668C2.31305 13.3333 1.97392 13.1928 1.72387 12.9428C1.47382 12.6927 1.33334 12.3536 1.33334 12V2.66665C1.33334 2.31302 1.47382 1.97388 1.72387 1.72384C1.97392 1.47379 2.31305 1.33331 2.66668 1.33331H12C12.3536 1.33331 12.6928 1.47379 12.9428 1.72384C13.1929 1.97388 13.3333 2.31302 13.3333 2.66665V12C13.3333 12.3536 13.1929 12.6927 12.9428 12.9428C12.6928 13.1928 12.3536 13.3333 12 13.3333Z" fill="#D9186A"/>
<path d="M12 30.6666H2.66668C2.31305 30.6666 1.97392 30.5262 1.72387 30.2761C1.47382 30.0261 1.33334 29.6869 1.33334 29.3333V20C1.33334 19.6463 1.47382 19.3072 1.72387 19.0571C1.97392 18.8071 2.31305 18.6666 2.66668 18.6666H12C12.3536 18.6666 12.6928 18.8071 12.9428 19.0571C13.1929 19.3072 13.3333 19.6463 13.3333 20V29.3333C13.3333 29.6869 13.1929 30.0261 12.9428 30.2761C12.6928 30.5262 12.3536 30.6666 12 30.6666Z" fill="#D9186A"/>
<path d="M17.3333 2.66663H30.6667V5.33329H17.3333V2.66663Z" fill="#2EC5CE"/>
<path d="M30.6667 20H17.3333V22.6667H30.6667V20Z" fill="#2EC5CE"/>
<path d="M30.6667 26.6666H17.3333V29.3333H30.6667V26.6666Z" fill="#D6B1FF"/>
<path d="M30.6667 9.33331H17.3333V12H30.6667V9.33331Z" fill="#D6B1FF"/>
</svg>
