<svg width="110" height="29" viewBox="0 0 110 29" fill="none" xmlns="http://www.w3.org/2000/svg">
<path d="M38.4457 1.37499L29.3539 18.1234C28.9947 18.7846 27.9803 18.5996 27.8891 17.8559L25.8896 1.64316C25.8423 1.25899 25.5095 0.969677 25.1141 0.969677H20.3221C20.0339 0.969677 19.7686 1.12525 19.6329 1.37499L10.5843 17.991C10.2258 18.6494 9.21559 18.4673 9.12021 17.7269L7.04414 1.63838C6.99471 1.25558 6.66262 0.968994 6.26927 0.968994H1.4954C1.02477 0.968994 0.661353 1.37363 0.720531 1.83149L4.05673 27.5419C4.10616 27.924 4.43825 28.2106 4.83161 28.2106H10.5843C10.8719 28.2106 11.1364 28.0557 11.2722 27.8073L19.9462 11.9794C20.3054 11.3237 21.3114 11.5052 21.4089 12.2435L23.4258 27.5432C23.4759 27.9247 23.808 28.2106 24.2007 28.2106H29.9151C30.2047 28.2106 30.4707 28.0536 30.6057 27.8025L44.4636 2.09215C44.7386 1.58243 44.3613 0.968994 43.773 0.968994H39.1356C38.8467 0.968994 38.5814 1.12525 38.4457 1.37499Z" fill="#443850"/>
<path d="M48.4612 1.58589L47.7434 5.12799C47.6474 5.60154 48.017 6.04302 48.5099 6.04302H53.3924C53.7649 6.04302 54.0858 5.78509 54.1589 5.42686L54.8767 1.88476C54.9728 1.41121 54.6031 0.969728 54.1102 0.969728H49.2277C48.8546 0.969046 48.5336 1.22766 48.4612 1.58589ZM43.9832 28.2106H48.865C49.2375 28.2106 49.5577 27.9527 49.6308 27.5951L53.0701 10.724C53.1668 10.2504 52.7972 9.80825 52.3042 9.80825H47.4225C47.05 9.80825 46.7298 10.0662 46.6567 10.4237L43.2174 27.2949C43.1206 27.7685 43.4903 28.2106 43.9832 28.2106Z" fill="#443850"/>
<path d="M91.1704 11.4341L91.0625 11.9466C91.0806 11.9466 91.0806 11.9466 91.0806 11.9466L91.1885 11.4341L92.2704 6.02441L91.1704 11.4341Z" fill="#443850"/>
<path d="M89.7418 23.1542H102.981C103.476 23.1542 103.846 23.5998 103.746 24.0747L103.004 27.5991C102.929 27.9546 102.609 28.2098 102.239 28.2098H82.3106C81.8177 28.2098 81.448 27.7676 81.5448 27.2941L84.2975 13.8203L84.388 13.8913C86.0652 15.2171 88.0494 16.1007 90.1415 16.5252L88.9753 22.2385C88.8792 22.7127 89.2489 23.1542 89.7418 23.1542Z" fill="#443850"/>
<path d="M107.714 1.88954L106.972 5.41389C106.897 5.7694 106.577 6.0246 106.207 6.0246H92.911C92.5386 6.0246 92.2176 6.28253 92.1452 6.64076L91.1796 11.3899C91.1747 11.4138 91.1496 11.4281 91.1267 11.4213C89.304 10.8707 87.6248 9.88535 86.2825 8.50017C86.0346 8.23951 85.8042 7.97954 85.5564 7.7025C85.548 7.69295 85.5445 7.67999 85.5466 7.6677L86.7879 1.58521C86.861 1.22766 87.1813 0.969727 87.5538 0.969727H106.949C107.444 0.969045 107.815 1.41462 107.714 1.88954Z" fill="#443850"/>
<path d="M102.755 18.4734L102.861 17.7139C102.926 17.254 102.561 16.8439 102.088 16.8439H93.2619C92.2162 16.8439 91.1698 16.7382 90.1415 16.526C88.0494 16.1015 86.0653 15.2179 84.3881 13.8921L84.2976 13.8211C83.9008 13.5031 83.5039 13.1497 83.1252 12.7607C81.3575 10.975 80.0953 8.76555 78.2372 7.66969C76.127 6.27292 73.4215 5.566 70.698 5.566C66.9643 5.566 64.7817 6.96278 64.7817 8.9068C64.7274 13.3789 78.5435 11.046 78.5435 19.4075C78.5435 25.0465 73.4751 28.6705 65.7375 28.6705C61.5694 28.6705 57.6003 27.5466 55.1671 26.0304C54.8239 25.8169 54.7076 25.3802 54.897 25.0274L56.7781 21.5296C56.9905 21.1352 57.5022 20.9981 57.8844 21.239C60.3239 22.7784 63.3607 23.6142 66.3683 23.6142C69.9036 23.6142 72.1217 22.4119 72.1217 20.4324C72.1217 16.066 58.3418 18.3997 58.3418 9.73722C58.3418 4.13374 63.3377 0.509766 71.0398 0.509766C74.7736 0.509766 78.2365 1.32313 80.653 2.84341C80.653 2.84341 82.6553 3.95701 84.3505 6.21969C84.7474 6.74988 85.1442 7.24527 85.541 7.68675C85.7938 7.96925 86.0284 8.23468 86.2804 8.50012C87.6331 9.89689 89.3284 10.887 91.1684 11.4349H91.1865C92.3227 11.7706 93.5132 11.9474 94.7219 11.9474H103.302C103.688 11.9474 104.017 11.6703 104.075 11.2957L104.222 10.3329C104.271 10.0163 104.659 9.87915 104.902 10.092L109.534 14.1411C109.703 14.2892 109.686 14.5533 109.499 14.6795L103.335 18.8255C103.069 19.0049 102.711 18.788 102.755 18.4734Z" fill="#D9186A"/>
</svg>
